<svg xmlns="http://www.w3.org/2000/svg" viewBox="0 0 64 64">
  <rect width="64" height="64" rx="14" fill="#0e9f6e"/>
  <path d="M48,24a9.4,9.4,0,0,0-3.2,0.58L38.9,14.6H44a1.6,1.6,0,0,1,1.6,1.6,1.6,1.6,0,0,0,3.2,0,4.8,4.8,0,0,0-4.8-4.8H37.2a1.6,1.6,0,0,0-1.38,2.4l2.33,4H26.15l-3.27-5.6a1.6,1.6,0,0,0-1.38-0.8h-5.6a1.6,1.6,0,0,0,0,3.2H21.4l2.74,4.7-3.13,4.31a9.6,9.6,0,1,0,2.58,1.89l2.32-3.18,6.44,11.04a1.6,1.6,0,0,0,2.77-1.6L28.5,24h11.5l2.24,3.83A9.6,9.6,0,1,0,48,24ZM16,33.2a6.4,6.4,0,1,1-4.04-5.95l-3.65,5a1.6,1.6,0,1,0,2.58,1.88l3.65-5A6.4,6.4,0,0,1,16,33.2Zm25.6,6.4a6.4,6.4,0,0,1-4.5-10.94l3.61,6.19a1.6,1.6,0,1,0,2.77-1.62l-3.61-6.19A6.4,6.4,0,0,1,41.6,39.6Z" fill="#ffffff"/>
</svg>
